<svg width="86" height="84" viewBox="0 0 86 84" fill="none" xmlns="http://www.w3.org/2000/svg">
<mask id="path-1-inside-1_107_108" fill="white">
<path d="M7.13154 62.7823V77.6268H22.0767L66.1549 33.8058L51.2098 18.9614L7.13154 62.7823ZM85.2848 67.1762L68.3469 84L47.623 63.4156L54.6771 56.409L58.6624 60.3676L68.5063 50.5504L74.1656 56.1715L68.3469 61.7926L72.5714 65.7512L78.2306 60.2092L85.2848 67.1762M21.5187 37.3685L0.715088 16.8238L17.6529 0L24.6672 7.0066L14.8233 16.8238L19.0877 21.0198L28.8917 11.2026L34.5509 16.8238L28.8917 22.4053L32.8771 26.3638L21.5187 37.3685M77.7125 22.2074C79.2668 20.6635 79.2668 18.2488 77.7125 16.6258L68.3868 7.52121C66.9122 5.97738 64.3217 5.97738 62.7674 7.52121L55.4343 14.7653L70.3795 29.6098L77.7125 22.2074Z"/>
</mask>
<path d="M7.13154 62.7823L5.68 61.3222L5.07272 61.926V62.7823H7.13154ZM7.13154 77.6268H5.07272V79.6856H7.13154V77.6268ZM22.0767 77.6268V79.6856H22.926L23.5282 79.0868L22.0767 77.6268ZM66.1549 33.8058L67.6065 35.2659L69.0758 33.8052L67.6058 32.3451L66.1549 33.8058ZM51.2098 18.9614L52.6607 17.5006L51.2091 16.0589L49.7583 17.5013L51.2098 18.9614ZM68.3469 84L66.896 85.4607L68.3469 86.9018L69.7978 85.4607L68.3469 84ZM47.623 63.4156L46.1721 61.9549L44.7014 63.4156L46.1721 64.8764L47.623 63.4156ZM54.6771 56.409L56.1279 54.9483L54.6771 53.5072L53.2262 54.9483L54.6771 56.409ZM58.6624 60.3676L57.2116 61.8283L58.6654 63.2723L60.1163 61.8254L58.6624 60.3676ZM68.5063 50.5504L69.9572 49.0897L68.5034 47.6457L67.0525 49.0926L68.5063 50.5504ZM74.1656 56.1715L75.596 57.6523L77.1076 56.192L75.6164 54.7108L74.1656 56.1715ZM68.3469 61.7926L66.9165 60.3119L65.3602 61.8154L66.9392 63.295L68.3469 61.7926ZM72.5714 65.7512L71.1637 67.2535L72.6028 68.602L74.0119 67.2221L72.5714 65.7512ZM78.2306 60.2092L79.6774 58.7444L78.2368 57.3216L76.7902 58.7383L78.2306 60.2092ZM0.715088 16.8238L-0.735792 15.363L-2.21066 16.828L-0.731577 18.2886L0.715088 16.8238ZM17.6529 0L19.1079 -1.4566L17.657 -2.90591L16.2021 -1.46072L17.6529 0ZM24.6672 7.0066L26.121 8.46438L27.5816 7.00778L26.1222 5.54999L24.6672 7.0066ZM14.8233 16.8238L13.3695 15.366L11.8979 16.8336L13.3793 18.2913L14.8233 16.8238ZM19.0877 21.0198L17.6437 22.4873L19.1003 23.9207L20.5444 22.4746L19.0877 21.0198ZM28.8917 11.2026L30.3426 9.74192L28.8858 8.29497L27.4349 9.7478L28.8917 11.2026ZM34.5509 16.8238L35.9966 18.2896L37.4776 16.8289L36.0018 15.363L34.5509 16.8238ZM28.8917 22.4053L27.446 20.9394L25.965 22.4001L27.4408 23.866L28.8917 22.4053ZM32.8771 26.3638L34.3097 27.8425L35.817 26.3821L34.3279 24.9031L32.8771 26.3638ZM77.7125 22.2074L76.2617 20.7466L76.2557 20.7525L76.2499 20.7584L77.7125 22.2074ZM77.7125 16.6258L79.1995 15.2018L79.1755 15.1768L79.1508 15.1527L77.7125 16.6258ZM68.3868 7.52121L66.898 8.94325L66.9228 8.96925L66.9485 8.99438L68.3868 7.52121ZM62.7674 7.52121L64.2143 8.98588L64.2183 8.98193L62.7674 7.52121ZM55.4343 14.7653L53.9874 13.3006L52.5088 14.7613L53.9834 16.226L55.4343 14.7653ZM70.3795 29.6098L68.9286 31.0705L70.3912 32.5233L71.8421 31.0587L70.3795 29.6098ZM5.07272 62.7823V77.6268H9.19037V62.7823H5.07272ZM7.13154 79.6856H22.0767V75.5679H7.13154V79.6856ZM23.5282 79.0868L67.6065 35.2659L64.7034 32.3458L20.6252 76.1667L23.5282 79.0868ZM67.6058 32.3451L52.6607 17.5006L49.7589 20.4221L64.7041 35.2666L67.6058 32.3451ZM49.7583 17.5013L5.68 61.3222L8.58308 64.2423L52.6613 20.4214L49.7583 17.5013ZM83.8339 65.7155L66.896 82.5393L69.7978 85.4607L86.7356 68.637L83.8339 65.7155ZM69.7978 82.5393L49.0738 61.9549L46.1721 64.8764L66.896 85.4607L69.7978 82.5393ZM49.0738 64.8764L56.1279 57.8698L53.2262 54.9483L46.1721 61.9549L49.0738 64.8764ZM53.2262 57.8698L57.2116 61.8283L60.1133 58.9069L56.1279 54.9483L53.2262 57.8698ZM60.1163 61.8254L69.9601 52.0082L67.0525 49.0926L57.2086 58.9098L60.1163 61.8254ZM67.0554 52.0111L72.7147 57.6323L75.6164 54.7108L69.9572 49.0897L67.0554 52.0111ZM72.7351 54.6908L66.9165 60.3119L69.7774 63.2734L75.596 57.6523L72.7351 54.6908ZM66.9392 63.295L71.1637 67.2535L73.9792 64.2488L69.7547 60.2903L66.9392 63.295ZM74.0119 67.2221L79.6711 61.6802L76.7902 58.7383L71.1309 64.2802L74.0119 67.2221ZM76.7839 61.6741L83.838 68.6411L86.7315 65.7114L79.6774 58.7444L76.7839 61.6741ZM22.9654 35.9036L2.16175 15.3589L-0.731577 18.2886L20.0721 38.8334L22.9654 35.9036ZM2.16597 18.2845L19.1038 1.46072L16.2021 -1.46072L-0.735792 15.363L2.16597 18.2845ZM16.1979 1.4566L23.2122 8.4632L26.1222 5.54999L19.1079 -1.4566L16.1979 1.4566ZM23.2134 5.54881L13.3695 15.366L16.2771 18.2815L26.121 8.46438L23.2134 5.54881ZM13.3793 18.2913L17.6437 22.4873L20.5317 19.5523L16.2673 15.3562L13.3793 18.2913ZM20.5444 22.4746L30.3485 12.6575L27.4349 9.7478L17.6309 19.565L20.5444 22.4746ZM27.4408 12.6634L33.1 18.2845L36.0018 15.363L30.3426 9.74192L27.4408 12.6634ZM33.1052 15.3579L27.446 20.9394L30.3374 23.8711L35.9966 18.2896L33.1052 15.3579ZM27.4408 23.866L31.4262 27.8245L34.3279 24.9031L30.3426 20.9446L27.4408 23.866ZM31.4445 24.8852L20.0861 35.8899L22.9514 38.8472L34.3097 27.8425L31.4445 24.8852ZM79.1634 23.6681C81.548 21.2996 81.4966 17.6005 79.1995 15.2018L76.2256 18.0498C77.037 18.8971 76.9857 20.0275 76.2617 20.7466L79.1634 23.6681ZM79.1508 15.1527L69.825 6.04804L66.9485 8.99438L76.2743 18.099L79.1508 15.1527ZM69.8756 6.09917C67.5693 3.68464 63.6519 3.74084 61.3165 6.06049L64.2183 8.98193C64.9915 8.21391 66.255 8.27012 66.898 8.94325L69.8756 6.09917ZM61.3205 6.05654L53.9874 13.3006L56.8812 16.23L64.2143 8.98587L61.3205 6.05654ZM53.9834 16.226L68.9286 31.0705L71.8303 28.1491L56.8852 13.3046L53.9834 16.226ZM71.8421 31.0587L79.1752 23.6563L76.2499 20.7584L68.9168 28.1609L71.8421 31.0587Z" fill="black" mask="url(#path-1-inside-1_107_108)"/>
</svg>
