<svg width="42" height="42" viewBox="0 0 42 42" fill="none" xmlns="http://www.w3.org/2000/svg">
<g clip-path="url(#clip0_105_132)">
<path d="M4.28627 6.86626V5.86626H3.28627V6.86626H4.28627ZM14.1485 6.86626L15.0737 6.48663L14.8191 5.86626H14.1485V6.86626ZM20.9324 23.3984L20.0072 23.778L20.2618 24.3984H20.9324V23.3984ZM21.2744 23.3984V24.3984H21.945L22.1996 23.778L21.2744 23.3984ZM28.0583 6.86626V5.86626H27.3877L27.1331 6.48663L28.0583 6.86626ZM37.9205 6.86626H38.9205V5.86626H37.9205V6.86626ZM37.9205 36.054V37.054H38.9205V36.054H37.9205ZM30.1675 36.054H29.1675V37.054H30.1675V36.054ZM30.1675 19.1798H31.1675V18.1798H30.1675V19.1798ZM29.9395 19.1798V18.1798H29.2564L29.008 18.8161L29.9395 19.1798ZM23.4407 35.8259V36.8259H24.1238L24.3722 36.1896L23.4407 35.8259ZM18.7661 35.8259L17.8337 36.1875L18.0813 36.8259H18.7661V35.8259ZM12.2673 19.0658L13.1996 18.7043L12.9521 18.0658H12.2673V19.0658ZM12.0392 19.0658V18.0658H11.0392V19.0658H12.0392ZM12.0392 36.054V37.054H13.0392V36.054H12.0392ZM4.28627 36.054H3.28627V37.054H4.28627V36.054ZM4.28627 7.86626H14.1485V5.86626H4.28627V7.86626ZM13.2234 7.24588L20.0072 23.778L21.8575 23.0187L15.0737 6.48663L13.2234 7.24588ZM20.9324 24.3984H21.2744V22.3984H20.9324V24.3984ZM22.1996 23.778L28.9834 7.24588L27.1331 6.48663L20.3493 23.0187L22.1996 23.778ZM28.0583 7.86626H37.9205V5.86626H28.0583V7.86626ZM36.9205 6.86626V36.054H38.9205V6.86626H36.9205ZM37.9205 35.054H30.1675V37.054H37.9205V35.054ZM31.1675 36.054V19.1798H29.1675V36.054H31.1675ZM30.1675 18.1798H29.9395V20.1798H30.1675V18.1798ZM29.008 18.8161L22.5092 35.4622L24.3722 36.1896L30.871 19.5435L29.008 18.8161ZM23.4407 34.8259H18.7661V36.8259H23.4407V34.8259ZM19.6985 35.4644L13.1996 18.7043L11.3349 19.4273L17.8337 36.1875L19.6985 35.4644ZM12.2673 18.0658H12.0392V20.0658H12.2673V18.0658ZM11.0392 19.0658V36.054H13.0392V19.0658H11.0392ZM12.0392 35.054H4.28627V37.054H12.0392V35.054ZM5.28627 36.054V6.86626H3.28627V36.054H5.28627Z" fill="black"/>
</g>
<defs>
<clipPath id="clip0_105_132">
<rect width="29.6985" height="29.6985" fill="white" transform="translate(0 21) rotate(-45)"/>
</clipPath>
</defs>
</svg>
