<svg width="86" height="84" viewBox="0 0 229 202" fill="none" xmlns="http://www.w3.org/2000/svg">
<path d="M100.92 124.167L97 120.247L115.164 102.083L97 83.9198L100.92 80L123.003 102.083L100.92 124.167Z" fill="black"/>
<path d="M79.0834 80.0001L83.0032 83.9199L64.8396 102.083L83.0032 120.247L79.0834 124.167L57 102.083L79.0834 80.0001Z" fill="black"/>
<path d="M93.3265 160.19L89.834 178.723H43.7561H43.6886H43.6205H43.5521H43.4831H43.4138H43.3439H43.2736H43.2029H43.1317H43.0601H42.988H42.9155H42.8425H42.7691H42.6953H42.6211H42.5464H42.4713H42.3957H42.3198H42.2434H42.1666H42.0894H42.0118H41.9338H41.8554H41.7765H41.6973H41.6177H41.5376H41.4572H41.3764H41.2952H41.2136H41.1316H41.0492H40.9665H40.8833H40.7998H40.7159H40.6317H40.547H40.462H40.3767H40.291H40.2049H40.1184H40.0316H39.9445H39.857H39.7691H39.6809H39.5924H39.5035H39.4143H39.3247H39.2348H39.1446H39.054H38.9631H38.8719H38.7804H38.6885H38.5964H38.5039H38.4111H38.3179H38.2245H38.1308H38.0367H37.9424H37.8478H37.7528H37.6576H37.5621H37.4662H37.3701H37.2738H37.1771H37.0801H36.9829H36.8854H36.7876H36.6895H36.5912H36.4926H36.3937H36.2946H36.1952H36.0956H35.9957H35.8955H35.7951H35.6945H35.5936H35.4925H35.3911H35.2894H35.1876H35.0855H34.9832H34.8806H34.7778H34.6748H34.5716H34.4681H34.3645H34.2606H34.1565H34.0522H33.9476H33.8429H33.738H33.6329H33.5275H33.422H33.3163H33.2103H33.1042H32.9979H32.8915H32.7848H32.6779H32.5709H32.4637H32.3563H32.2488H32.1411H32.0332H31.9251H31.8169H31.7086H31.6H31.4913H31.3825H31.2735H31.1644H31.0551H30.9457H30.8361H30.7264H30.6165H30.5066H30.3965H30.2862H30.1759H30.0654H29.9547H29.844H29.7332H29.6222H29.5111H29.3999H29.2886H29.1772H29.0657H28.9541H28.8424H28.7305H28.6186H28.5066H28.3946H28.2824H28.1701H28.0578H27.9453H27.8328H27.7203H27.6076H27.4949H27.3821H27.2692H27.1563H27.0433H26.9303H26.8172H26.704H26.5908H26.4775H26.3642H26.2509H26.1375H26.024H25.9105H25.797H25.6835H25.5699H25.4563H25.3426H25.229H25.1153H25.0016H24.8879H24.7741H24.6604H24.5466H24.4328H24.3191H24.2053H24.0915H23.9777H23.8639H23.7502H23.6364H23.5226H23.4089H23.2952H23.1814H23.0678H22.9541H22.8404H22.7268H22.6132H22.4997H22.3862H22.2727H22.1592H22.0458H21.9324H21.8191H21.7058H21.5926H21.4794H21.3663H21.2533H21.1403H21.0273H20.9144H20.8016H20.6889H20.5762H20.4636H20.3511H20.2386H20.1263H20.014H19.9018H19.7897H19.6777H19.5657H19.4539H19.3422H19.2305H19.119H19.0075H18.8962H18.785H18.6739H18.5629H18.452H18.3412H18.2306H18.1201H18.0097H17.8994H17.7893H17.6792H17.5694H17.4596H17.35H17.2406H17.1312H17.0221H16.913H16.8042H16.6954H16.5869H16.4785H16.3702H16.2621H16.1542H16.0464H15.9389H15.8314H15.7242H15.6171H15.5102H15.4035H15.297H15.1906H15.0845H14.9785H14.8727H14.7672H14.6618H14.5566H14.4516H14.3468H14.2423H14.1379H14.0337H13.9298H13.8261H13.7226H13.6193H13.5162H13.4134H13.3108H13.2084H13.1062H13.0043H12.9026H12.8012H12.7H12.599H12.4983H12.3979H12.2976H12.1977H12.098H11.9985H11.8993H11.8004H11.7017H11.6034H11.5052H11.4074H11.3098H11.2125H11.1155H11.0187H10.9222H10.8261H10.7302H10.6346H10.5393H10.4443H10.3495H10.2551H10.161H10.0672H9.9737H9.8805H9.78762H9.69505H9.60279H9.51086H9.41924H9.32795H9.23698H9.14633H9.05602H8.96604H8.8764H8.78709H8.69812H8.60949H8.52121H8.43327H8.34568H8.25844H8.17155H8.08502H7.99885H7.91303H7.82758H7.7425H7.65778H7.57343H7.48945H7.40584H7.32261H7.23977H7.1573H7.07521H6.99351H6.9122H6.83128H6.75075H6.67062H6.59088H6.51155H6.43261H6.35408H6.27596H6.19825H6.12094H6.04405H5.96758H5.89152H5.81589H5.74068H5.66589H5.59154H5.51761H5.44411H5.37105H5.29843H5.22624H5.1545H5.0832H5.01234H4.94194H4.87199H4.80249H4.73344H4.66486H4.59673H4.52907H4.46187H4.39514H4.32887H4.26308H4.19777H4.13293H4.06857H4.00469H3.9413H3.87839H3.81597H3.75404H3.6926H3.63166H3.57121H3.51127H3.45183H3.39289H3.33446H3.27654H3.21913H3.16224H3.10586H3.05H2.99466H2.93984H2.93877L2.93876 176.091L2.93875 163.942L2.93874 138.079V43.9471L2.93873 18.0841L2.93872 5.93519L2.93872 3.30304L5.59149 3.30304L17.7892 3.30305L43.7561 3.30306H138.267L164.234 3.30307L176.431 3.30308L179.084 3.30308V3.34874V3.40386V3.45949V3.51565V3.57232V3.6295V3.68718V3.74538V3.80408V3.86329V3.92299V3.98319V4.04389V4.10508V4.16676V4.22894V4.29159V4.35473V4.41836V4.48246V4.54704V4.61209V4.67762V4.74361V4.81008V4.87701V4.9444V5.01225V5.08057V5.14933V5.21856V5.28823V5.35835V5.42892V5.49994V5.57139V5.64329V5.71562V5.78839V5.86159V5.93523V6.00929V6.08377V6.15868V6.23401V6.30977V6.38593V6.46251V6.53951V6.61691V6.69472V6.77294V6.85156V6.93057V7.00999V7.0898V7.17001V7.25061V7.33159V7.41297V7.49472V7.57686V7.65938V7.74227V7.82554V7.90919V7.9932V8.07758V8.16232V8.24743V8.3329V8.41873V8.50492V8.59146V8.67835V8.76559V8.85317V8.9411V9.02938V9.11799V9.20694V9.29623V9.38585V9.4758V9.56608V9.65668V9.74761V9.83886V9.93043V10.0223V10.1145V10.207V10.2999V10.393V10.4864V10.5802V10.6742V10.7685V10.8632V10.9581V11.0533V11.1488V11.2446V11.3407V11.437V11.5337V11.6306V11.7278V11.8253V11.923V12.021V12.1193V12.2178V12.3166V12.4156V12.5149V12.6145V12.7143V12.8144V12.9147V13.0152V13.116V13.2171V13.3183V13.4198V13.5216V13.6236V13.7258V13.8282V13.9308V14.0337V14.1368V14.2401V14.3436V14.4474V14.5513V14.6555V14.7598V14.8644V14.9692V15.0741V15.1793V15.2846V15.3902V15.4959V15.6018V15.7079V15.8142V15.9207V16.0273V16.1341V16.2411V16.3483V16.4556V16.5631V16.6708V16.7786V16.8866V16.9947V17.103V17.2114V17.32V17.4288V17.5376V17.6467V17.7558V17.8651V17.9746V18.0841V18.1938V18.3037V18.4136V18.5237V18.6339V18.7442V18.8547V18.9652V19.0759V19.1867V19.2976V19.4085V19.5196V19.6308V19.7421V19.8535V19.965V20.0766V20.1882V20.3V20.4118V20.5237V20.6357V20.7478V20.8599V20.9722V21.0844V21.1968V21.3092V21.4217V21.5343V21.6469V21.7595V21.8723V21.985V22.0979V22.2107V22.3236V22.4366V22.5496V22.6626V22.7757V22.8888V23.0019V23.1151V23.2283V23.3415V23.4547V23.568V23.6813V23.7946V23.9079V24.0212V24.1345V24.2478V24.3611V24.4745V24.5878V24.7011V24.8144V24.9277V25.041V25.1543V25.2676V25.3808V25.4941V25.6073V25.7205V25.8336V25.9468V26.0599V26.1729V26.2859V26.3989V26.5119V26.6248V26.7376V26.8504V26.9632V27.0759V27.1886V27.3012V27.4137V27.5262V27.6386V27.7509V27.8632V27.9754V28.0875V28.1996V28.3116V28.4235V28.5353V28.647V28.7586V28.8702V28.9816V29.093V29.2043V29.3154V29.4265V29.5375V29.6483V29.7591V29.8697V29.9802V30.0906V30.2009V30.3111V30.4212V30.5311V30.6409V30.7506V30.8601V30.9695V31.0788V31.1879V31.2969V31.4057V31.5144V31.623V31.7314V31.8396V31.9477V32.0557V32.1634V32.2711V32.3785V32.4858V32.5929V32.6999V32.8066V32.9132V33.0197V33.1259V33.232V33.3378V33.4435V33.549V33.6543V33.7594V33.8643V33.969V34.0736V34.1779V34.282V34.3859V34.4895V34.593V34.6963V34.7993V34.9021V35.0047V35.1071V35.2092V35.3112V35.4128V35.5143V35.6155V35.7165V35.8172V35.9177V36.018V36.118V36.2177V36.3172V36.4165V36.5154V36.6142V36.7126V36.8108V36.9088V37.0064V37.1038V37.201V37.2978V37.3944V37.4907V37.5867V37.6824V37.7778V37.873V37.9678V38.0624V38.1566V38.2506V38.3443V38.4376V38.5307V38.6234V38.7159V38.808V38.8998V38.9913V39.0824V39.1733V39.2638V39.354V39.4439V39.5334V39.6226V39.7115V39.8V39.8882V39.9761V40.0635V40.1507V40.2375V40.324V40.4101V40.4958V40.5812V40.6662V40.7508V40.8351V40.9191V41.0026V41.0858V41.1686V41.251V41.333V41.4147V41.496V41.5769V41.6574V41.7375V41.8172V41.8965V41.9754V42.054V42.1321V42.2098V42.2871V42.364V42.4404V42.5165V42.5922V42.6674V42.7422V42.8166V42.8905V42.964V43.0371V43.1098V43.182V43.2538V43.3252V43.3961V43.4665V43.5365V43.6061V43.6752V43.7439V43.812V43.8798V43.9471V65.3918L160.456 86.5661V47.8692V45.3692H157.956H24.0664H21.5664V47.8692V157.69V160.19H24.0664V157.69C24.0664 160.19 24.0664 160.19 24.0665 160.19H24.0668H24.0673H24.068H24.0689H24.07H24.0713H24.0728H24.0745H24.0764H24.0785H24.0808H24.0833H24.086H24.0889H24.092H24.0953H24.0988H24.1025H24.1064H24.1104H24.1147H24.1192H24.1238H24.1287H24.1337H24.139H24.1444H24.1501H24.1559H24.1619H24.1681H24.1745H24.1811H24.1879H24.1949H24.202H24.2094H24.2169H24.2247H24.2326H24.2407H24.249H24.2575H24.2662H24.2751H24.2841H24.2934H24.3028H24.3125H24.3223H24.3323H24.3424H24.3528H24.3634H24.3741H24.385H24.3961H24.4074H24.4189H24.4306H24.4424H24.4544H24.4666H24.479H24.4916H24.5044H24.5173H24.5304H24.5437H24.5572H24.5709H24.5847H24.5987H24.6129H24.6273H24.6419H24.6566H24.6715H24.6866H24.7019H24.7173H24.733H24.7488H24.7647H24.7809H24.7972H24.8137H24.8304H24.8473H24.8643H24.8815H24.8989H24.9165H24.9342H24.9521H24.9702H24.9884H25.0068H25.0254H25.0442H25.0631H25.0822H25.1015H25.1209H25.1405H25.1603H25.1803H25.2004H25.2207H25.2412H25.2618H25.2826H25.3035H25.3247H25.346H25.3674H25.3891H25.4109H25.4328H25.455H25.4773H25.4997H25.5224H25.5451H25.5681H25.5912H25.6145H25.6379H25.6615H25.6853H25.7092H25.7333H25.7576H25.782H25.8066H25.8313H25.8562H25.8813H25.9065H25.9319H25.9574H25.9831H26.009H26.035H26.0611H26.0875H26.114H26.1406H26.1674H26.1944H26.2215H26.2487H26.2762H26.3037H26.3315H26.3594H26.3874H26.4156H26.444H26.4725H26.5011H26.5299H26.5589H26.588H26.6173H26.6467H26.6763H26.706H26.7359H26.7659H26.7961H26.8264H26.8569H26.8875H26.9182H26.9492H26.9802H27.0114H27.0428H27.0743H27.106H27.1378H27.1697H27.2018H27.2341H27.2665H27.299H27.3317H27.3645H27.3975H27.4306H27.4638H27.4972H27.5308H27.5644H27.5983H27.6322H27.6664H27.7006H27.735H27.7695H27.8042H27.839H27.874H27.9091H27.9443H27.9797H28.0152H28.0509H28.0866H28.1226H28.1586H28.1948H28.2312H28.2677H28.3043H28.341H28.3779H28.4149H28.4521H28.4894H28.5268H28.5644H28.6021H28.6399H28.6779H28.716H28.7542H28.7925H28.831H28.8697H28.9084H28.9473H28.9863H29.0255H29.0648H29.1042H29.1437H29.1834H29.2232H29.2631H29.3032H29.3434H29.3837H29.4241H29.4647H29.5054H29.5462H29.5871H29.6282H29.6694H29.7107H29.7522H29.7938H29.8355H29.8773H29.9193H29.9613H30.0035H30.0458H30.0883H30.1309H30.1735H30.2164H30.2593H30.3023H30.3455H30.3888H30.4322H30.4758H30.5194H30.5632H30.6071H30.6511H30.6952H30.7395H30.7838H30.8283H30.8729H30.9177H30.9625H31.0074H31.0525H31.0977H31.143H31.1884H31.2339H31.2796H31.3254H31.3712H31.4172H31.4633H31.5095H31.5559H31.6023H31.6489H31.6955H31.7423H31.7892H31.8362H31.8833H31.9305H31.9778H32.0253H32.0728H32.1205H32.1683H32.2161H32.2641H32.3122H32.3604H32.4087H32.4571H32.5057H32.5543H32.603H32.6519H32.7008H32.7499H32.799H32.8483H32.8976H32.9471H32.9967H33.0464H33.0961H33.146H33.196H33.2461H33.2963H33.3466H33.397H33.4475H33.4981H33.5488H33.5996H33.6505H33.7015H33.7525H33.8037H33.855H33.9064H33.9579H34.0095H34.0612H34.113H34.1648H34.2168H34.2689H34.321H34.3733H34.4257H34.4781H34.5307H34.5833H34.636H34.6889H34.7418H34.7948H34.8479H34.9011H34.9544H35.0078H35.0613H35.1148H35.1685H35.2222H35.2761H35.33H35.384H35.4381H35.4923H35.5466H35.601H35.6555H35.71H35.7647H35.8194H35.8742H35.9291H35.9841H36.0392H36.0943H36.1496H36.2049H36.2603H36.3158H36.3714H36.4271H36.4829H36.5387H36.5946H36.6506H36.7067H36.7629H36.8191H36.8755H36.9319H36.9884H37.0449H37.1016H37.1583H37.2152H37.272H37.329H37.3861H37.4432H37.5004H37.5577H37.6151H37.6725H37.73H37.7876H37.8453H37.9031H37.9609H38.0188H38.0768H38.1348H38.193H38.2512H38.3094H38.3678H38.4262H38.4847H38.5433H38.6019H38.6606H38.7194H38.7783H38.8372H38.8962H38.9553H39.0144H39.0736H39.1329H39.1923H39.2517H39.3112H39.3707H39.4304H39.4901H39.5498H39.6097H39.6696H39.7295H39.7896H39.8496H39.9098H39.97H40.0303H40.0907H40.1511H40.2116H40.2722H40.3328H40.3935H40.4542H40.515H40.5759H40.6368H40.6978H40.7589H40.82H40.8811H40.9424H41.0037H41.065H41.1265H41.1879H41.2495H41.3111H41.3727H41.4344H41.4962H41.558H41.6199H41.6819H41.7439H41.8059H41.868H41.9302H41.9924H42.0547H42.1171H42.1794H42.2419H42.3044H42.3669H42.4295H42.4922H42.5549H42.6177H42.6805H42.7434H42.8063H42.8693H42.9323H42.9954H43.0585H43.1217H43.1849H43.2482H43.3115H43.3749H43.4383H43.5017H43.5653H43.6288H43.6924H43.7561H93.3265ZM106.271 167.214L194.141 76.449L225.143 103.647L135.738 193.193L100.794 198.961L106.271 167.214Z" stroke="black" stroke-width="5"/>
</svg>
